HIERARCHY
ROOT Hips
{
	OFFSET 0.000000 0.000000 0.000000
	CHANNELS 6 Xposition Yposition Zposition Xrotation Yrotation Zrotation
	JOINT LeftUpLeg_virtual
	{
		OFFSET 0.000000 0.000000 0.000000
		CHANNELS 3 Xrotation Yrotation Zrotation
		JOINT LeftUpLeg
		{
			OFFSET 13.026900 -6.336304 -1.092800
			CHANNELS 3 Xrotation Yrotation Zrotation
			JOINT LeftLeg
			{
				OFFSET 0.524474 -46.096886 9.782700
				CHANNELS 3 Xrotation Yrotation Zrotation
				JOINT LeftFoot
				{
					OFFSET -0.524474 -53.427422 -12.948200
					CHANNELS 3 Xrotation Yrotation Zrotation
					JOINT LeftToeBase
					{
						OFFSET 0.192200 -14.009700 16.364100
						CHANNELS 3 Xrotation Yrotation Zrotation
						JOINT LeftToe_End
						{
							OFFSET -1.784700 -0.561700 9.474800
							CHANNELS 3 Xrotation Yrotation Zrotation
							End Site
							{
								OFFSET 0 0 0
							}
						}
					}
				}
			}
		}
	}
	JOINT RightUpLeg_virtual
	{
		OFFSET 0.000000 0.000000 0.000000
		CHANNELS 3 Xrotation Yrotation Zrotation
		JOINT RightUpLeg
		{
			OFFSET -12.883000 -6.336304 -1.092800
			CHANNELS 3 Xrotation Yrotation Zrotation
			JOINT RightLeg
			{
				OFFSET -0.524587 -46.096825 9.782800
				CHANNELS 3 Xrotation Yrotation Zrotation
				JOINT RightFoot
				{
					OFFSET 0.524587 -53.427383 -12.948300
					CHANNELS 3 Xrotation Yrotation Zrotation
					JOINT RightToeBase
					{
						OFFSET -0.192200 -14.009700 16.364100
						CHANNELS 3 Xrotation Yrotation Zrotation
						JOINT RightToe_End
						{
							OFFSET 1.784700 -0.561700 9.474800
							CHANNELS 3 Xrotation Yrotation Zrotation
							End Site
							{
								OFFSET 0 0 0
							}
						}
					}
				}
			}
		}
	}
	JOINT Spine_virtual
	{
		OFFSET 0.000000 0.000000 0.000000
		CHANNELS 3 Xrotation Yrotation Zrotation
		JOINT Spine
		{
			OFFSET 0.072000 7.257294 -0.789700
			CHANNELS 3 Xrotation Yrotation Zrotation
			JOINT Spine1
			{
				OFFSET 0.000000 12.508769 -0.658067
				CHANNELS 3 Xrotation Yrotation Zrotation
				JOINT Spine1_split
				{
					OFFSET 0.000000 12.508769 -0.658067
					CHANNELS 3 Xrotation Yrotation Zrotation
					JOINT Spine2
					{
						OFFSET 0.000000 12.508769 -0.658067
						CHANNELS 3 Xrotation Yrotation Zrotation
						JOINT Neck_virtual
						{
							OFFSET 0.000000 0.000000 0.000000
							CHANNELS 3 Xrotation Yrotation Zrotation
							JOINT Neck
							{
								OFFSET 0.000000 14.033295 7.520400
								CHANNELS 3 Xrotation Yrotation Zrotation
								JOINT Head
								{
									OFFSET 0.000000 8.198502 5.703100
									CHANNELS 3 Xrotation Yrotation Zrotation
									JOINT HeadTop_End
									{
										OFFSET 0.000000 17.760803 13.332701
										CHANNELS 3 Xrotation Yrotation Zrotation
										End Site
										{
											OFFSET 0 0 0
										}
									}
								}
							}
						}
						JOINT LeftShoulder_virtual
						{
							OFFSET 0.000000 0.000000 0.000000
							CHANNELS 3 Xrotation Yrotation Zrotation
							JOINT LeftShoulder
							{
								OFFSET 6.292450 5.785301 -0.669000
								CHANNELS 3 Xrotation Yrotation Zrotation
								JOINT LeftShoulder_split
								{
									OFFSET 6.292450 5.785301 -0.669000
									CHANNELS 3 Xrotation Yrotation Zrotation
									JOINT LeftArm
									{
										OFFSET 13.907140 -6.093903 1.965100
										CHANNELS 3 Xrotation Yrotation Zrotation
										JOINT LeftForeArm
										{
											OFFSET 34.140198 0.000000 0.000000
											CHANNELS 3 Xrotation Yrotation Zrotation
											JOINT LeftHand
											{
												OFFSET 40.960209 0.000000 0.000000
												CHANNELS 3 Xrotation Yrotation Zrotation
												End Site
												{
													OFFSET 0 0 0
												}
											}
										}
									}
								}
							}
						}
						JOINT RightShoulder_virtual
						{
							OFFSET 0.000000 0.000000 0.000000
							CHANNELS 3 Xrotation Yrotation Zrotation
							JOINT RightShoulder
							{
								OFFSET -6.292450 5.785301 -0.669000
								CHANNELS 3 Xrotation Yrotation Zrotation
								JOINT RightShoulder_split
								{
									OFFSET -6.292450 5.785301 -0.669000
									CHANNELS 3 Xrotation Yrotation Zrotation
									JOINT RightArm
									{
										OFFSET -13.907140 -6.093903 1.965100
										CHANNELS 3 Xrotation Yrotation Zrotation
										JOINT RightForeArm
										{
											OFFSET -34.140198 0.000000 0.000000
											CHANNELS 3 Xrotation Yrotation Zrotation
											JOINT RightHand
											{
												OFFSET -40.960209 0.000000 0.000000
												CHANNELS 3 Xrotation Yrotation Zrotation
												End Site
												{
													OFFSET 0 0 0
												}
											}
										}
									}
								}
							}
						}
					}
				}
			}
		}
	}
}
MOTION
Frames: 6
Frame Time: 0.03333333
6.850158 116.292236 -15.930479 0.000000 0.000000 0.000000 5.205182 8.156949 -0.736709 -21.338039 7.532950 1.769315 22.850553 3.892153 7.033384 -5.414266 -2.527593 -8.252194 -1.737147 -3.850602 2.387143 0.000000 0.000000 0.000000 5.221831 5.409785 -0.607903 -11.407597 -11.129642 0.816730 18.051080 -1.930465 -2.504993 -13.371596 -23.509709 8.195421 -4.287700 2.558745 -3.198799 0.000000 0.000000 0.000000 6.805384 9.961549 -1.179773 21.059898 -1.291035 1.945982 3.891275 1.977502 -0.058998 0.161019 -0.955089 0.158224 0.000000 0.000000 0.000000 6.345709 5.102454 -0.823514 7.170845 15.422828 7.945769 -12.447498 -55.587764 -44.572793 0.000000 0.000000 0.000000 5.763238 2.166335 -0.648262 6.522509 -38.514767 2.207608 5.976677 1.665738 -7.361999 18.670460 17.875469 -54.971155 4.468952 -40.515487 12.455061 0.000000 0.000000 0.000000 2.345050 2.593475 0.278229 -7.582081 0.207992 7.331430 -10.518709 -11.343525 6.328981 17.392853 11.262751 31.461525 -9.898944 35.732568 19.628934 0.000000 0.000000 0.000000 
6.892453 116.398468 -15.703176 0.000000 0.000000 0.000000 5.091765 8.158109 -0.843279 -21.042131 7.733572 1.856106 22.786261 3.811935 7.114877 -5.555151 -2.776917 -8.523193 -1.845318 -3.854582 2.384000 0.000000 0.000000 0.000000 5.097851 5.354336 -0.698168 -10.967225 -10.772827 1.031307 17.654480 -1.993195 -2.547701 -13.278222 -23.755046 8.169016 -4.424055 2.552432 -3.196452 0.000000 0.000000 0.000000 6.658694 10.058529 -1.294120 20.449440 -1.294714 1.921057 3.981364 2.036324 -0.127317 0.188512 -1.019263 0.176741 0.000000 0.000000 0.000000 6.280361 5.192836 -0.824453 6.995773 15.283325 8.399682 -12.106947 -57.392461 -46.418075 0.000000 0.000000 0.000000 5.948574 2.237399 -0.579518 6.179807 -37.704338 1.879961 6.189905 1.524170 -7.408563 19.251798 18.449017 -54.743840 5.385620 -40.025086 13.459204 0.000000 0.000000 0.000000 2.291782 2.587861 0.200736 -7.631567 0.547714 8.025998 -10.997118 -11.550099 5.936971 18.665468 9.902245 31.042711 -9.347198 37.109121 19.720665 0.000000 0.000000 0.000000 
6.930717 116.432053 -15.528757 0.000000 0.000000 0.000000 4.949883 8.200843 -0.968129 -20.862591 7.860658 1.978514 22.853803 3.744992 7.169053 -5.674235 -2.972784 -8.814330 -1.947917 -3.850092 2.372552 0.000000 0.000000 0.000000 4.970424 5.371570 -0.810398 -10.610568 -10.420684 1.227251 17.422336 -2.010679 -2.581908 -13.274908 -23.997899 8.125427 -4.483072 2.564184 -3.279483 0.000000 0.000000 0.000000 6.504630 10.163875 -1.423044 19.940293 -1.248799 1.925825 4.107476 2.112991 -0.170987 0.202873 -1.077247 0.188032 0.000000 0.000000 0.000000 6.224411 5.290132 -0.788667 6.913169 15.172085 8.735404 -12.035203 -59.285181 -48.310191 0.000000 0.000000 0.000000 6.154666 2.318021 -0.512858 5.851493 -36.859925 1.457852 6.283693 1.417192 -7.406671 19.412345 18.381287 -54.601229 6.536452 -39.739639 14.481198 0.000000 0.000000 0.000000 2.279969 2.599168 0.160864 -7.647256 0.958389 8.902904 -11.418732 -11.576868 5.617187 19.181488 8.748933 31.012303 -9.386557 38.327910 20.544738 0.000000 0.000000 0.000000 
6.964108 116.388580 -15.400057 0.000000 0.000000 0.000000 4.780234 8.275946 -1.093463 -20.787367 7.923778 2.117197 23.042012 3.697794 7.189799 -5.778994 -3.107878 -9.100408 -2.006498 -3.837369 2.353701 0.000000 0.000000 0.000000 4.844535 5.456361 -0.922517 -10.350616 -10.103346 1.375806 17.365643 -1.987323 -2.595013 -13.372883 -24.219943 8.029611 -4.412613 2.591805 -3.439624 0.000000 0.000000 0.000000 6.352481 10.291376 -1.557535 19.543307 -1.163245 1.960190 4.254346 2.208525 -0.184862 0.206177 -1.115849 0.192384 0.000000 0.000000 0.000000 6.185170 5.397607 -0.721918 6.852202 15.091504 8.931520 -12.377217 -61.161434 -50.283566 0.000000 0.000000 0.000000 6.342506 2.413177 -0.451822 5.550545 -36.085194 0.953938 6.227305 1.323367 -7.352562 19.246971 17.843705 -54.487178 7.650454 -39.592428 15.278117 0.000000 0.000000 0.000000 2.287641 2.632305 0.165657 -7.637716 1.380599 9.932424 -11.855072 -11.405303 5.365194 18.999901 7.870022 31.320594 -9.982823 39.286388 22.003690 0.000000 0.000000 0.000000 
6.988956 116.285629 -15.310358 0.000000 0.000000 0.000000 4.592887 8.374350 -1.185883 -20.777915 7.932245 2.245373 23.285985 3.666554 7.184163 -5.875911 -3.180751 -9.365670 -2.011919 -3.816498 2.337321 0.000000 0.000000 0.000000 4.706294 5.581203 -1.002229 -10.208180 -9.860196 1.445344 17.492569 -1.916412 -2.579699 -13.491505 -24.402724 7.942048 -4.288370 2.632583 -3.661228 0.000000 0.000000 0.000000 6.205285 10.449897 -1.674153 19.258330 -1.038737 2.012776 4.414729 2.326357 -0.175824 0.204917 -1.147971 0.189087 0.000000 0.000000 0.000000 6.169913 5.518126 -0.634551 6.722441 15.025342 8.980912 -13.270655 -62.946846 -52.431189 0.000000 0.000000 0.000000 6.486855 2.526019 -0.401774 5.280509 -35.480606 0.382705 6.121592 1.203084 -7.210760 18.863249 16.999571 -54.348563 8.529580 -39.693310 15.664127 0.000000 0.000000 0.000000 2.293143 2.697517 0.216469 -7.616684 1.812222 11.128882 -12.288357 -11.121986 5.220940 18.301314 7.317815 31.990506 -10.967969 39.789786 23.904965 0.000000 0.000000 0.000000 
6.998708 116.156563 -15.252691 0.000000 0.000000 0.000000 4.398025 8.496089 -1.211044 -20.779355 7.891365 2.323443 23.494194 3.647459 7.158433 -5.957757 -3.197591 -9.599935 -1.964309 -3.789806 2.323691 0.000000 0.000000 0.000000 4.553487 5.729880 -1.017637 -10.148022 -9.718874 1.423507 17.754616 -1.796625 -2.536239 -13.553010 -24.542386 7.916752 -4.195416 2.681788 -3.921354 0.000000 0.000000 0.000000 6.056406 10.649646 -1.749003 19.075677 -0.876979 2.072323 4.574950 2.463703 -0.156913 0.191855 -1.174817 0.183293 0.000000 0.000000 0.000000 6.181461 5.656028 -0.542317 6.488806 14.965986 8.882011 -14.792692 -64.667958 -54.821858 0.000000 0.000000 0.000000 6.577217 2.655391 -0.367622 5.032807 -35.074442 -0.258879 6.018310 1.031706 -6.984875 18.288347 15.996154 -54.139604 9.041071 -40.164893 15.547751 0.000000 0.000000 0.000000 2.290168 2.795253 0.302236 -7.579439 2.319023 12.466904 -12.715377 -10.838758 5.172364 17.283232 7.076393 33.042830 -12.199092 39.909168 26.066109 0.000000 0.000000 0.000000 
